<svg xmlns="http://www.w3.org/2000/svg" xmlns:xlink="http://www.w3.org/1999/xlink" width="580" height="580" viewBox="0 0 580 580">
  <defs>
    <clipPath id="clip-Icon">
      <rect width="580" height="580"/>
    </clipPath>
  </defs>
  <g id="Icon" clip-path="url(#clip-Icon)">
    <rect width="580" height="580" fill="#fff"/>
    <g id="money" transform="translate(89 90.589)">
      <path id="Caminho_34" data-name="Caminho 34" d="M384.019,261H18.287A18.341,18.341,0,0,1,0,242.712V41.559A18.341,18.341,0,0,1,18.287,23.272H384.02a18.341,18.341,0,0,1,18.287,18.287V242.712A18.342,18.342,0,0,1,384.019,261Z" fill="#20a76c"/>
      <path id="Caminho_35" data-name="Caminho 35" d="M390.906,232.727c-21.03,0-40.231,10.058-51.2,26.515-9.143-4.571-19.2-8.228-31.087-8.228-32,0-58.517,23.773-63.089,54.86h191.1c9.143,0,16.458-6.4,18.287-15.544C451.251,258.328,423.822,232.727,390.906,232.727Z" transform="translate(-52.603 -44.875)" fill="#0d8944"/>
      <path id="Caminho_36" data-name="Caminho 36" d="M352.432,247.7H59.846a36.68,36.68,0,0,0-36.573-36.573V83.119A36.68,36.68,0,0,0,59.846,46.546H352.432a36.68,36.68,0,0,0,36.573,36.573V211.125A36.68,36.68,0,0,0,352.432,247.7Z" transform="translate(-4.986 -4.986)" fill="#27ca83"/>
      <g id="Grupo_9" data-name="Grupo 9" transform="translate(73.147 59.846)">
        <path id="Caminho_37" data-name="Caminho 37" d="M392.4,232.727c-21.03,0-40.231,10.058-51.2,26.515-9.143-4.571-19.2-8.228-31.087-8.228a62.809,62.809,0,0,0-57.6,36.573H401.545c0-20.115,15.544-35.659,35.659-36.573C425.317,240.042,409.774,232.727,392.4,232.727Z" transform="translate(-127.246 -104.721)" fill="#0e9347"/>
        <ellipse id="Elipse_1" data-name="Elipse 1" cx="73.147" cy="82.29" rx="73.147" ry="82.29" transform="translate(54.86)" fill="#20a76c"/>
        <circle id="Elipse_2" data-name="Elipse 2" cx="18.287" cy="18.287" r="18.287" transform="translate(0 64.003)" fill="#20a76c"/>
        <circle id="Elipse_3" data-name="Elipse 3" cx="18.287" cy="18.287" r="18.287" transform="translate(219.439 64.003)" fill="#20a76c"/>
      </g>
      <circle id="Elipse_4" data-name="Elipse 4" cx="64.004" cy="64.004" r="64.004" transform="translate(173.722 206.139)" fill="#ffca5d"/>
      <circle id="Elipse_5" data-name="Elipse 5" cx="64.004" cy="64.004" r="64.004" transform="translate(256.013 187.852)" fill="#f6b545"/>
      <path id="Caminho_39" data-name="Caminho 39" d="M389.822,232.727a64,64,0,1,0,64,64A63.61,63.61,0,0,0,389.822,232.727Zm0,109.72a45.717,45.717,0,1,1,45.717-45.717A45.273,45.273,0,0,1,389.822,342.447Z" transform="translate(-69.805 -44.875)" fill="#ffcb5b"/>
      <path id="Caminho_40" data-name="Caminho 40" d="M407.273,377.271h0c35.659.915,64-28.344,64-63.089h-.915c-4.572,0-8.229,3.658-9.143,8.229a55.28,55.28,0,0,1-17.372,32.916c-7.315,7.315-17.372,11.886-28.344,13.715A8.2,8.2,0,0,0,407.273,377.271Z" transform="translate(-87.257 -62.326)" fill="#f6b545"/>
      <path id="Caminho_41" data-name="Caminho 41" d="M389.822,233.885h0c-35.659-.915-64,28.344-64,63.089h.915c4.572,0,8.229-3.658,9.143-8.229a55.28,55.28,0,0,1,17.372-32.916c7.315-7.315,17.372-11.886,28.344-13.715A8.194,8.194,0,0,0,389.822,233.885Z" transform="translate(-69.805 -45.119)" fill="#ffe27a"/>
      <path id="Caminho_42" data-name="Caminho 42" d="M355.491,308.117A45.273,45.273,0,0,1,401.208,262.4a43.127,43.127,0,0,1,29.258,10.972C421.323,262.4,409.437,256,394.808,256a45.273,45.273,0,0,0-45.717,45.717,43.836,43.836,0,0,0,16.458,34.744C359.149,329.147,355.491,319.089,355.491,308.117Z" transform="translate(-74.791 -49.861)" fill="#f19920"/>
      <path id="Caminho_43" data-name="Caminho 43" d="M441.06,341.28a3.359,3.359,0,0,1-2.743-.915,4.419,4.419,0,0,1,0-6.4c5.486-5.486,8.229-13.715,8.229-21.03a4.572,4.572,0,0,1,9.143,0,42.22,42.22,0,0,1-10.058,27.43A9.939,9.939,0,0,1,441.06,341.28Z" transform="translate(-93.614 -61.08)" fill="#ffcb5b"/>
      <g id="Grupo_10" data-name="Grupo 10" transform="translate(256.927 206.139)">
        <path id="Caminho_44" data-name="Caminho 44" d="M404.78,334.133c-5.486,0-9.143-3.658-9.143-9.143V288.417c0-5.486,3.658-9.143,9.143-9.143s9.143,3.658,9.143,9.143V324.99C413.923,330.475,410.266,334.133,404.78,334.133Z" transform="translate(-341.69 -260.986)" fill="#f19920"/>
        <path id="Caminho_45" data-name="Caminho 45" d="M423.9,355.662c-6.4-22.858-22.858-41.145-43.888-49.374-3.658-21.03-17.372-39.316-34.744-50.288-10.972,11.886-18.287,27.43-18.287,44.8a63.61,63.61,0,0,0,64,64C402.871,365.719,413.843,362.063,423.9,355.662Z" transform="translate(-326.981 -256)" fill="#f19920"/>
      </g>
      <g id="Grupo_11" data-name="Grupo 11" transform="translate(274.299 218.026)">
        <path id="Caminho_46" data-name="Caminho 46" d="M365.548,339.7c-6.4-8.229-10.972-18.287-10.972-29.258a44.264,44.264,0,0,1,14.629-32.916,39.752,39.752,0,0,0-5.486-6.4c-9.143,8.229-14.629,20.115-14.629,33.831A43.838,43.838,0,0,0,365.548,339.7Z" transform="translate(-349.09 -271.128)" fill="#e78825"/>
        <path id="Caminho_47" data-name="Caminho 47" d="M395.636,321.164v12.8c0,5.486,3.658,9.143,9.143,9.143s9.143-3.658,9.143-9.143v-1.828A74.705,74.705,0,0,0,395.636,321.164Z" transform="translate(-359.062 -281.848)" fill="#e78825"/>
      </g>
      <path id="Caminho_48" data-name="Caminho 48" d="M423.651,355.911c-1.828-6.4-3.658-11.886-7.315-17.372a44.245,44.245,0,0,1-26.515,9.143A45.273,45.273,0,0,1,344.1,301.965c0-13.715,5.486-25.6,14.629-33.831A55.779,55.779,0,0,0,344.1,257.162c-10.972,11.886-18.287,27.43-18.287,44.8a63.61,63.61,0,0,0,64,64A61.3,61.3,0,0,0,423.651,355.911Z" transform="translate(-69.805 -50.11)" fill="#f6b545"/>
      <path id="Caminho_49" data-name="Caminho 49" d="M438.36,372.364c-6.4,4.572-14.629,7.315-22.858,9.143-4.572.915-8.229,4.572-8.229,9.143h0A61.315,61.315,0,0,0,441.1,380.592Q439.732,376.478,438.36,372.364Z" transform="translate(-87.257 -74.792)" fill="#f19920"/>
      <path id="Caminho_50" data-name="Caminho 50" d="M344.1,257.164c-10.972,11.886-18.287,27.43-18.287,44.8h.915c4.572,0,8.229-3.658,9.143-8.229a56.893,56.893,0,0,1,16.458-32A37.1,37.1,0,0,1,344.1,257.164Z" transform="translate(-69.805 -50.111)" fill="#ffcb5b"/>
      <circle id="Elipse_6" data-name="Elipse 6" cx="64.004" cy="64.004" r="64.004" transform="translate(173.722 206.139)" fill="#f6b545"/>
      <path id="Caminho_51" data-name="Caminho 51" d="M290.909,378.185a63.368,63.368,0,0,0,2.743,18.287h6.4a63.785,63.785,0,0,0,61.261-82.29h-6.4A63.611,63.611,0,0,0,290.909,378.185Z" transform="translate(-62.326 -62.326)" fill="#f19920"/>
      <path id="Caminho_52" data-name="Caminho 52" d="M285.094,256a64,64,0,1,0,64,64A63.61,63.61,0,0,0,285.094,256Zm0,109.719A45.717,45.717,0,1,1,330.81,320,45.273,45.273,0,0,1,285.094,365.719Z" transform="translate(-47.368 -49.861)" fill="#ffcb5b"/>
      <path id="Caminho_53" data-name="Caminho 53" d="M302.545,400.543h0c35.659.915,64-28.344,64-63.088h-.915c-4.572,0-8.229,3.658-9.143,8.229A55.28,55.28,0,0,1,339.119,378.6c-7.315,7.315-17.372,11.886-28.344,13.715A8.194,8.194,0,0,0,302.545,400.543Z" transform="translate(-64.819 -67.313)" fill="#f6b545"/>
      <path id="Caminho_54" data-name="Caminho 54" d="M285.094,257.158h0c-35.659-.915-64,28.345-64,63.089H222c4.572,0,8.229-3.658,9.143-8.229A55.28,55.28,0,0,1,248.52,279.1c7.315-7.315,17.372-11.886,28.344-13.715A8.194,8.194,0,0,0,285.094,257.158Z" transform="translate(-47.368 -50.105)" fill="#ffe27a"/>
      <path id="Caminho_55" data-name="Caminho 55" d="M250.764,331.39a45.273,45.273,0,0,1,45.717-45.717,43.128,43.128,0,0,1,29.258,10.972c-9.143-10.972-21.03-17.372-35.659-17.372a45.273,45.273,0,0,0-45.717,45.717,43.836,43.836,0,0,0,16.458,34.744C254.421,352.42,250.764,342.362,250.764,331.39Z" transform="translate(-52.354 -54.847)" fill="#f19920"/>
      <path id="Caminho_56" data-name="Caminho 56" d="M336.333,364.552a3.358,3.358,0,0,1-2.743-.915,4.419,4.419,0,0,1,0-6.4c5.486-5.486,8.229-13.715,8.229-21.03a4.572,4.572,0,0,1,9.143,0,42.22,42.22,0,0,1-10.058,27.43A9.941,9.941,0,0,1,336.333,364.552Z" transform="translate(-71.177 -66.066)" fill="#ffcb5b"/>
      <path id="Caminho_57" data-name="Caminho 57" d="M300.052,357.406c-5.486,0-9.143-3.658-9.143-9.143V311.69c0-5.486,3.658-9.143,9.143-9.143s9.143,3.658,9.143,9.143v36.573C309.2,353.748,305.538,357.406,300.052,357.406Z" transform="translate(-62.326 -59.834)" fill="#f19920"/>
      <g id="Grupo_12" data-name="Grupo 12" transform="translate(219.439 251.855)">
        <path id="Caminho_58" data-name="Caminho 58" d="M342.112,315.1c1.828,5.486,3.658,10.972,3.658,17.372a45.273,45.273,0,0,1-45.717,45.717c-2.743,0-6.4,0-9.143-.915v.915a63.368,63.368,0,0,0,2.743,18.287h6.4a63.785,63.785,0,0,0,61.26-82.29h-6.4A60.447,60.447,0,0,0,342.112,315.1Z" transform="translate(-281.765 -314.181)" fill="#f6b545"/>
        <circle id="Elipse_7" data-name="Elipse 7" cx="64.004" cy="64.004" r="64.004" transform="translate(0 9.144)" fill="#f6b545"/>
      </g>
      <path id="Caminho_59" data-name="Caminho 59" d="M343.276,325.818a64,64,0,1,0,64,64A63.61,63.61,0,0,0,343.276,325.818Zm0,109.72a45.717,45.717,0,1,1,45.717-45.717A45.273,45.273,0,0,1,343.276,435.538Z" transform="translate(-59.833 -64.819)" fill="#ffcb5b"/>
      <path id="Caminho_60" data-name="Caminho 60" d="M360.727,470.362h0c35.659.915,64-28.344,64-63.089h-.915c-4.572,0-8.229,3.658-9.143,8.229A55.28,55.28,0,0,1,397.3,448.418c-7.315,7.315-17.372,11.886-28.344,13.715A8.194,8.194,0,0,0,360.727,470.362Z" transform="translate(-77.284 -82.271)" fill="#f6b545"/>
      <path id="Caminho_61" data-name="Caminho 61" d="M343.276,326.976h0c-35.659-.915-64,28.344-64,63.089h.915c4.572,0,8.229-3.658,9.143-8.229A55.28,55.28,0,0,1,306.7,348.92c7.315-7.315,17.372-11.886,28.345-13.715A8.194,8.194,0,0,0,343.276,326.976Z" transform="translate(-59.833 -65.063)" fill="#ffe27a"/>
      <path id="Caminho_62" data-name="Caminho 62" d="M308.946,401.208a45.273,45.273,0,0,1,45.717-45.717,43.127,43.127,0,0,1,29.258,10.972c-9.143-10.972-21.03-17.372-35.659-17.372a45.273,45.273,0,0,0-45.717,45.717A43.836,43.836,0,0,0,319,429.552C312.6,422.238,308.946,412.18,308.946,401.208Z" transform="translate(-64.819 -69.806)" fill="#f19920"/>
      <path id="Caminho_63" data-name="Caminho 63" d="M394.514,434.37a3.358,3.358,0,0,1-2.743-.915,4.419,4.419,0,0,1,0-6.4c5.486-5.486,8.229-13.715,8.229-21.03a4.572,4.572,0,0,1,9.143,0,42.22,42.22,0,0,1-10.058,27.43A9.937,9.937,0,0,1,394.514,434.37Z" transform="translate(-83.642 -81.024)" fill="#ffcb5b"/>
      <path id="Caminho_64" data-name="Caminho 64" d="M358.234,427.224c-5.486,0-9.143-3.658-9.143-9.143V381.507c0-5.486,3.658-9.143,9.143-9.143s9.143,3.658,9.143,9.143V418.08C367.378,423.566,363.72,427.224,358.234,427.224Z" transform="translate(-74.791 -74.792)" fill="#f19920"/>
      <path id="Caminho_65" data-name="Caminho 65" d="M33.829-69.51v40.742H49.772a5.447,5.447,0,0,0,4.33-1.8,7.488,7.488,0,0,0,1.575-5.085V-85.583H65.911v51.633a19.6,19.6,0,0,1-.886,5.9A13.424,13.424,0,0,1,62.2-23.06a13.742,13.742,0,0,1-4.921,3.444,18,18,0,0,1-7.118,1.279H23.791V-69.51ZM7.849-18.336V-85.583H34.223A18,18,0,0,1,41.341-84.3a13.742,13.742,0,0,1,4.921,3.444,13.424,13.424,0,0,1,2.821,4.986,19.6,19.6,0,0,1,.886,5.9v35.494H39.734V-68.329a7.465,7.465,0,0,0-1.575-5.117,5.5,5.5,0,0,0-4.33-1.771H17.887v56.882Z" transform="translate(165.684 195.616)" fill="#bef9e0"/>
    </g>
  </g>
</svg>
